<svg width="1528" height="511" viewBox="0 0 1528 511" fill="none" xmlns="http://www.w3.org/2000/svg">
<path d="M1112 349V312H1115.54V349H1112Z" fill="white"/>
<path d="M1149.93 342.401V312H1153.47V349H1150.44L1130.73 318.599V349H1127.19V312H1130.22L1149.93 342.401Z" fill="white"/>
<path d="M1162.05 312H1187.32V315.35H1176.45V349H1172.92V315.35H1162.05V312Z" fill="white"/>
<path d="M1199.45 331.87V345.65H1216.64V349H1195.92V312H1216.39V315.35H1199.45V328.52H1215.12V331.87H1199.45Z" fill="white"/>
<path d="M1229.8 312V345.65H1245.97V349H1226.26V312H1229.8Z" fill="white"/>
<path d="M1258.11 312V345.65H1274.29V349H1254.58V312H1258.11Z" fill="white"/>
<path d="M1282.89 349V312H1286.43V349H1282.89Z" fill="white"/>
<path d="M1314.2 331.21H1331.9V333.038C1331.9 337.437 1330.33 341.159 1327.2 344.204C1324.03 347.216 1319.83 348.722 1314.61 348.722C1309.22 348.722 1304.79 346.945 1301.32 343.392C1297.81 339.805 1296.06 335.457 1296.06 330.348C1296.06 325.238 1297.81 320.89 1301.32 317.303C1304.79 313.75 1309.22 311.973 1314.61 311.973C1317.84 311.973 1320.84 312.768 1323.61 314.359C1326.34 315.949 1328.44 318.064 1329.92 320.704L1326.79 322.531C1325.68 320.365 1324.03 318.639 1321.84 317.353C1319.65 316.068 1317.24 315.425 1314.61 315.425C1310.16 315.425 1306.56 316.863 1303.79 319.739C1301 322.649 1299.6 326.185 1299.6 330.348C1299.6 334.51 1301 338.046 1303.79 340.956C1306.56 343.832 1310.16 345.27 1314.61 345.27C1318.59 345.27 1321.77 344.272 1324.16 342.276C1326.52 340.245 1327.89 337.674 1328.26 334.56H1314.2V331.21Z" fill="white"/>
<path d="M1345.04 331.87V345.65H1362.23V349H1341.5V312H1361.97V315.35H1345.04V328.52H1360.71V331.87H1345.04Z" fill="white"/>
<path d="M1394.59 342.401V312H1398.13V349H1395.1L1375.38 318.599V349H1371.84V312H1374.88L1394.59 342.401Z" fill="white"/>
<path d="M1406.71 312H1431.98V315.35H1421.11V349H1417.57V315.35H1406.71V312Z" fill="white"/>
<path d="M1123.14 428.749C1119.91 428.749 1117.13 427.987 1114.8 426.465C1112.51 424.908 1110.91 422.776 1110 420.069L1113.03 418.293C1113.67 420.526 1114.85 422.252 1116.57 423.47C1118.32 424.688 1120.53 425.297 1123.19 425.297C1125.79 425.297 1127.83 424.722 1129.31 423.571C1130.79 422.421 1131.53 420.864 1131.53 418.902C1131.53 417.041 1130.86 415.636 1129.51 414.689C1128.2 413.741 1125.97 412.76 1122.84 411.745C1119.1 410.493 1116.67 409.512 1115.56 408.801C1112.86 407.177 1111.52 404.825 1111.52 401.746C1111.52 398.734 1112.56 396.365 1114.65 394.639C1116.71 392.88 1119.28 392 1122.38 392C1125.05 392 1127.4 392.711 1129.46 394.132C1131.52 395.519 1133.05 397.363 1134.06 399.664L1131.08 401.339C1129.46 397.414 1126.56 395.452 1122.38 395.452C1120.16 395.452 1118.37 396.01 1117.03 397.127C1115.71 398.209 1115.05 399.698 1115.05 401.593C1115.05 403.387 1115.66 404.706 1116.87 405.552C1118.12 406.432 1120.13 407.329 1122.89 408.243L1125.62 409.207C1126.19 409.376 1127 409.681 1128.04 410.121C1129.19 410.561 1129.98 410.933 1130.42 411.237C1132.21 412.32 1133.34 413.318 1133.81 414.232C1134.65 415.586 1135.07 417.108 1135.07 418.8C1135.07 421.812 1133.98 424.231 1131.79 426.059C1129.6 427.852 1126.71 428.749 1123.14 428.749Z" fill="white"/>
<path d="M1173.7 423.419C1170.16 426.972 1165.83 428.749 1160.71 428.749C1155.59 428.749 1151.26 426.972 1147.72 423.419C1144.18 419.798 1142.41 415.45 1142.41 410.374C1142.41 405.265 1144.18 400.933 1147.72 397.38C1151.26 393.793 1155.59 392 1160.71 392C1165.83 392 1170.16 393.793 1173.7 397.38C1177.24 400.933 1179.01 405.265 1179.01 410.374C1179.01 415.45 1177.24 419.798 1173.7 423.419ZM1145.95 410.374C1145.95 414.57 1147.37 418.107 1150.2 420.983C1153.03 423.859 1156.53 425.297 1160.71 425.297C1164.89 425.297 1168.4 423.859 1171.23 420.983C1174.06 418.107 1175.47 414.57 1175.47 410.374C1175.47 406.212 1174.06 402.693 1171.23 399.817C1168.4 396.907 1164.89 395.452 1160.71 395.452C1156.53 395.452 1153.03 396.907 1150.2 399.817C1147.37 402.693 1145.95 406.212 1145.95 410.374Z" fill="white"/>
<path d="M1192.14 392V425.65H1208.31V429H1188.6V392H1192.14Z" fill="white"/>
<path d="M1215.92 416.059V392H1219.46V416.059C1219.46 418.936 1220.3 421.203 1221.98 422.861C1223.7 424.485 1226.06 425.297 1229.06 425.297C1232.06 425.297 1234.4 424.485 1236.09 422.861C1237.8 421.203 1238.66 418.936 1238.66 416.059V392H1242.2V416.059C1242.2 419.917 1240.99 422.996 1238.56 425.297C1236.1 427.598 1232.93 428.749 1229.06 428.749C1225.18 428.749 1222.02 427.598 1219.56 425.297C1217.13 422.996 1215.92 419.917 1215.92 416.059Z" fill="white"/>
<path d="M1250.3 392H1275.57V395.35H1264.7V428.749H1261.16V395.35H1250.3V392Z" fill="white"/>
<path d="M1284.16 428.749V392H1287.7V428.749H1284.16Z" fill="white"/>
<path d="M1328.62 423.419C1325.08 426.972 1320.75 428.749 1315.63 428.749C1310.51 428.749 1306.18 426.972 1302.64 423.419C1299.1 419.798 1297.33 415.45 1297.33 410.374C1297.33 405.265 1299.1 400.933 1302.64 397.38C1306.18 393.793 1310.51 392 1315.63 392C1320.75 392 1325.08 393.793 1328.62 397.38C1332.16 400.933 1333.93 405.265 1333.93 410.374C1333.93 415.45 1332.16 419.798 1328.62 423.419ZM1300.87 410.374C1300.87 414.57 1302.28 418.107 1305.11 420.983C1307.95 423.859 1311.45 425.297 1315.63 425.297C1319.81 425.297 1323.31 423.859 1326.14 420.983C1328.97 418.107 1330.39 414.57 1330.39 410.374C1330.39 406.212 1328.97 402.693 1326.14 399.817C1323.31 396.907 1319.81 395.452 1315.63 395.452C1311.45 395.452 1307.95 396.907 1305.11 399.817C1302.28 402.693 1300.87 406.212 1300.87 410.374Z" fill="white"/>
<path d="M1366.26 421.541L1366.25 392H1369.78V429H1366.75L1347.04 398.599V429H1343.5V392H1346.53L1366.26 421.541Z" fill="white"/>
<path d="M1392.04 428.749C1388.8 428.749 1386.02 427.987 1383.69 426.465C1381.4 424.908 1379.8 422.776 1378.89 420.069L1381.93 418.293C1382.57 420.526 1383.75 422.252 1385.46 423.47C1387.22 424.688 1389.42 425.297 1392.09 425.297C1394.68 425.297 1396.72 424.722 1398.2 423.571C1399.68 422.421 1400.43 420.864 1400.43 418.902C1400.43 417.041 1399.75 415.636 1398.4 414.689C1397.09 413.741 1394.87 412.76 1391.73 411.745C1387.99 410.493 1385.57 409.512 1384.45 408.801C1381.76 407.177 1380.41 404.825 1380.41 401.746C1380.41 398.734 1381.45 396.365 1383.54 394.639C1385.6 392.88 1388.18 392 1391.28 392C1393.94 392 1396.3 392.711 1398.35 394.132C1400.41 395.519 1401.94 397.363 1402.95 399.664L1399.97 401.339C1398.35 397.414 1395.46 395.452 1391.28 395.452C1389.05 395.452 1387.27 396.01 1385.92 397.127C1384.6 398.209 1383.95 399.698 1383.95 401.593C1383.95 403.387 1384.55 404.706 1385.77 405.552C1387.01 406.432 1389.02 407.329 1391.78 408.243L1394.51 409.207C1395.08 409.376 1395.89 409.681 1396.94 410.121C1398.08 410.561 1398.88 410.933 1399.31 411.237C1401.1 412.32 1402.23 413.318 1402.7 414.232C1403.54 415.586 1403.96 417.108 1403.96 418.8C1403.96 421.812 1402.87 424.231 1400.68 426.059C1398.49 427.852 1395.61 428.749 1392.04 428.749Z" fill="white"/>
<path d="M1139.89 509H1136.15L1132.85 499.597H1116.04L1112.75 509H1109L1122.5 472.054H1126.15L1139.89 509ZM1124.32 476.5L1117.31 496.224H1131.59L1124.32 476.5Z" fill="url(#paint0_linear_17_307)"/>
<path d="M1146.5 496.224L1146.37 472.054H1149.92L1150.04 496.224C1150.04 499.12 1150.89 501.402 1152.57 503.072C1154.3 504.707 1156.66 505.525 1159.66 505.525C1162.67 505.525 1165.02 504.707 1166.7 503.072C1168.43 501.402 1169.29 499.12 1169.29 496.224L1169.16 472.054H1172.71L1172.83 496.224C1172.83 500.108 1171.62 503.208 1169.19 505.525C1166.72 507.842 1163.55 509 1159.66 509C1155.78 509 1152.61 507.842 1150.14 505.525C1147.71 503.208 1146.5 500.108 1146.5 496.224Z" fill="url(#paint1_linear_17_307)"/>
<path d="M1180.82 472.054H1206.14V475.427H1195.25L1195.38 509H1191.83L1191.71 475.427H1180.82V472.054Z" fill="url(#paint2_linear_17_307)"/>
<path d="M1242.18 503.634C1238.63 507.211 1234.29 509 1229.16 509C1224.03 509 1219.69 507.211 1216.14 503.634C1212.6 499.988 1210.83 495.61 1210.83 490.5C1210.83 485.355 1212.6 480.994 1216.14 477.417C1219.69 473.806 1224.03 472 1229.16 472C1234.29 472 1238.63 473.806 1242.18 477.417C1245.72 480.994 1247.49 485.355 1247.49 490.5C1247.49 495.61 1245.72 499.988 1242.18 503.634ZM1214.37 490.5C1214.37 494.725 1215.79 498.285 1218.62 501.181C1221.46 504.077 1224.97 505.525 1229.16 505.525C1233.35 505.525 1236.86 504.077 1239.69 501.181C1242.53 498.285 1243.95 494.725 1243.95 490.5C1243.95 486.309 1242.53 482.766 1239.69 479.87C1236.86 476.94 1233.35 475.475 1229.16 475.475C1224.97 475.475 1221.46 476.94 1218.62 479.87C1215.79 482.766 1214.37 486.309 1214.37 490.5Z" fill="url(#paint3_linear_17_307)"/>
<path d="M1273.31 509V472H1276.85V509H1273.31Z" fill="url(#paint4_linear_17_307)"/>
<path d="M1316.53 472H1320.94V509H1317.39V477.417L1304.99 498.37H1304.48L1292.07 477.417V509H1288.53V472H1292.93L1304.73 491.931L1316.53 472Z" fill="url(#paint5_linear_17_307)"/>
<path d="M1332.58 472H1345.24C1348.41 472 1351.06 473.073 1353.19 475.22C1355.32 477.366 1356.38 480.041 1356.38 483.243C1356.38 486.446 1355.32 489.12 1353.19 491.267C1351.06 493.413 1348.41 494.486 1345.24 494.486H1336.12V509H1332.58V472ZM1336.12 491.113H1345.24C1347.43 491.113 1349.24 490.381 1350.66 488.916C1352.11 487.451 1352.84 485.56 1352.84 483.243C1352.84 480.96 1352.11 479.087 1350.66 477.622C1349.24 476.122 1347.43 475.373 1345.24 475.373H1336.12V491.113Z" fill="url(#paint6_linear_17_307)"/>
<path d="M1395.07 503.634C1391.53 507.211 1387.19 509 1382.06 509C1376.93 509 1372.59 507.211 1369.04 503.634C1365.5 499.988 1363.72 495.61 1363.72 490.5C1363.72 485.355 1365.5 480.994 1369.04 477.417C1372.59 473.806 1376.93 472 1382.06 472C1387.19 472 1391.53 473.806 1395.07 477.417C1398.62 480.994 1400.39 485.355 1400.39 490.5C1400.39 495.61 1398.62 499.988 1395.07 503.634ZM1367.27 490.5C1367.27 494.725 1368.69 498.285 1371.52 501.181C1374.36 504.077 1377.87 505.525 1382.06 505.525C1386.24 505.525 1389.76 504.077 1392.59 501.181C1395.43 498.285 1396.85 494.725 1396.85 490.5C1396.85 486.309 1395.43 482.766 1392.59 479.87C1389.76 476.94 1386.24 475.475 1382.06 475.475C1377.87 475.475 1374.36 476.94 1371.52 479.87C1368.69 482.766 1367.27 486.309 1367.27 490.5Z" fill="url(#paint7_linear_17_307)"/>
<path d="M1435.83 508.387H1431.78L1423.47 493.5H1413.55V508.387H1410V472.036H1424.18C1427.08 472.036 1429.58 473.092 1431.68 475.204C1433.77 477.317 1434.82 479.838 1434.82 482.768C1434.82 485.221 1434.09 487.384 1432.64 489.258C1431.25 491.098 1429.43 492.359 1427.17 493.04L1435.83 508.387ZM1424.18 475.409H1413.55V490.127H1424.18C1426.14 490.127 1427.81 489.412 1429.2 487.981C1430.58 486.482 1431.27 484.744 1431.27 482.768C1431.27 480.758 1430.58 479.02 1429.2 477.555C1427.81 476.124 1426.14 475.409 1424.18 475.409Z" fill="url(#paint8_linear_17_307)"/>
<path d="M1440.68 472.036H1466V475.409H1455.11V508.387H1451.57V475.409H1440.68V472.036Z" fill="url(#paint9_linear_17_307)"/>
<path d="M828.26 312L941.812 511H845.992L828.26 475.494H721.552L703.819 511H608L708.797 334.337L686.709 312H828.26ZM743.64 433.302H806.171L777.861 380.252H771.95L743.64 433.302Z" fill="white"/>
<path d="M325 511H552.658C570.5 511 586 504.562 586 461.5C586 418.438 575 408.5 519.992 398.866C500.202 395.4 461 389.5 403 380V361H578V312H282L317 347V375.542C317 416.326 345.861 420.655 381.05 425.933L381.5 426C401.5 429 442 436.5 499 445V462H325V511Z" fill="white"/>
<path d="M139 312H260V511L173.995 510.943V347L139 312Z" fill="white"/>
<path d="M929 312H1050V511L963.995 510.943V347L929 312Z" fill="white"/>
<path d="M18.0218 226.899C147.968 273.857 195.666 282.251 746.149 226.899C1238.37 177.405 1460.57 259.224 1527.99 306.71C1460.74 254.257 1210.22 162.9 746.149 217.089C285.775 264.459 133.416 268.599 18.0218 226.899Z" fill="url(#paint10_linear_17_307)"/>
<path d="M623.325 75C790.316 75 904.722 140.914 948.721 181.844C933.51 168.971 824.549 81.4364 623.325 81.4364C403.61 81.4364 338.816 215.676 419.651 232.047C349.363 235.313 108.131 257.793 0 201.153C257.455 232.047 414.585 75 623.325 75Z" fill="url(#paint11_linear_17_307)"/>
<defs>
<linearGradient id="paint0_linear_17_307" x1="1630" y1="370" x2="869.76" y2="359.727" gradientUnits="userSpaceOnUse">
<stop stop-color="#967317"/>
<stop offset="0.498745" stop-color="#FBE0B7"/>
<stop offset="0.885983" stop-color="#967317"/>
</linearGradient>
<linearGradient id="paint1_linear_17_307" x1="1630" y1="370" x2="869.76" y2="359.727" gradientUnits="userSpaceOnUse">
<stop stop-color="#967317"/>
<stop offset="0.498745" stop-color="#FBE0B7"/>
<stop offset="0.885983" stop-color="#967317"/>
</linearGradient>
<linearGradient id="paint2_linear_17_307" x1="1630" y1="370" x2="869.76" y2="359.727" gradientUnits="userSpaceOnUse">
<stop stop-color="#967317"/>
<stop offset="0.498745" stop-color="#FBE0B7"/>
<stop offset="0.885983" stop-color="#967317"/>
</linearGradient>
<linearGradient id="paint3_linear_17_307" x1="1630" y1="370" x2="869.76" y2="359.727" gradientUnits="userSpaceOnUse">
<stop stop-color="#967317"/>
<stop offset="0.498745" stop-color="#FBE0B7"/>
<stop offset="0.885983" stop-color="#967317"/>
</linearGradient>
<linearGradient id="paint4_linear_17_307" x1="1630" y1="370" x2="869.76" y2="359.727" gradientUnits="userSpaceOnUse">
<stop stop-color="#967317"/>
<stop offset="0.498745" stop-color="#FBE0B7"/>
<stop offset="0.885983" stop-color="#967317"/>
</linearGradient>
<linearGradient id="paint5_linear_17_307" x1="1630" y1="370" x2="869.76" y2="359.727" gradientUnits="userSpaceOnUse">
<stop stop-color="#967317"/>
<stop offset="0.498745" stop-color="#FBE0B7"/>
<stop offset="0.885983" stop-color="#967317"/>
</linearGradient>
<linearGradient id="paint6_linear_17_307" x1="1630" y1="370" x2="869.76" y2="359.727" gradientUnits="userSpaceOnUse">
<stop stop-color="#967317"/>
<stop offset="0.498745" stop-color="#FBE0B7"/>
<stop offset="0.885983" stop-color="#967317"/>
</linearGradient>
<linearGradient id="paint7_linear_17_307" x1="1630" y1="370" x2="869.76" y2="359.727" gradientUnits="userSpaceOnUse">
<stop stop-color="#967317"/>
<stop offset="0.498745" stop-color="#FBE0B7"/>
<stop offset="0.885983" stop-color="#967317"/>
</linearGradient>
<linearGradient id="paint8_linear_17_307" x1="1630" y1="370" x2="869.76" y2="359.727" gradientUnits="userSpaceOnUse">
<stop stop-color="#967317"/>
<stop offset="0.498745" stop-color="#FBE0B7"/>
<stop offset="0.885983" stop-color="#967317"/>
</linearGradient>
<linearGradient id="paint9_linear_17_307" x1="1630" y1="370" x2="869.76" y2="359.727" gradientUnits="userSpaceOnUse">
<stop stop-color="#967317"/>
<stop offset="0.498745" stop-color="#FBE0B7"/>
<stop offset="0.885983" stop-color="#967317"/>
</linearGradient>
<linearGradient id="paint10_linear_17_307" x1="1183" y1="44.1053" x2="-114.567" y2="221.749" gradientUnits="userSpaceOnUse">
<stop stop-color="#967317"/>
<stop offset="0.498745" stop-color="#FBE0B7"/>
<stop offset="0.885983" stop-color="#967317"/>
</linearGradient>
<linearGradient id="paint11_linear_17_307" x1="1183" y1="44.1053" x2="-114.567" y2="221.749" gradientUnits="userSpaceOnUse">
<stop stop-color="#967317"/>
<stop offset="0.498745" stop-color="#FBE0B7"/>
<stop offset="0.885983" stop-color="#967317"/>
</linearGradient>
</defs>
</svg>
