<?xml version="1.0" encoding="utf-8"?>
<!-- Generator: Adobe Illustrator 27.3.1, SVG Export Plug-In . SVG Version: 6.00 Build 0)  -->
<svg version="1.1" id="Слой_1" xmlns="http://www.w3.org/2000/svg" xmlns:xlink="http://www.w3.org/1999/xlink" x="0px" y="0px"
	 viewBox="0 0 787 330" style="enable-background:new 0 0 787 330;" xml:space="preserve">
<style type="text/css">
	.st0{fill:#FFDD00;}
	.st1{fill:#FD0000;}
</style>
<g>
	<g>
		<path class="st0" d="M257.2,225.4v-94.3h25.6c-14.4-48.8-59.5-84.5-113-84.5C104.7,46.7,52,99.4,52,164.5
			c0,65.1,52.7,117.8,117.8,117.8c42.8,0,80.2-22.8,100.8-56.9H257.2z"/>
	</g>
	<g>
		<path class="st1" d="M257.2,131.2h48.3c11.8,0,20.2,3,25.7,8.5c3.8,3.8,6.1,8.8,6.1,15.5c0,10.9-6.2,17.4-14.5,21
			c11.4,3.8,18.7,10.2,18.7,23.3c0,16.2-13.2,26-35.7,26h-48.6V131.2z M299.1,168.7c7.9,0,12.4-2.7,12.4-8.5c0-5.1-4-8.1-11.8-8.1
			h-17v16.6H299.1z M302.8,204.4c7.9,0,12.5-3.1,12.5-8.9c0-5.1-4-8.5-12.8-8.5h-19.9v17.4H302.8z"/>
		<path class="st1" d="M353.5,131.2h40.4c23.8,0,39.2,12.3,39.2,33.4c0,22.2-17.1,33.9-40.5,33.9h-12.9v26.9h-26.1V131.2z M392,178
			c9.3,0,14.9-4.8,14.9-12.5c0-8.1-5.7-12.4-15.1-12.4h-12.3V178H392z"/>
		<path class="st1" d="M440.8,178.3c0-27.1,21.8-49,50.9-49c29.1,0,50.6,21.7,50.6,49c0,27.1-21.8,49-50.9,49
			C462.4,227.3,440.8,205.6,440.8,178.3z M515.7,178.3c0-13.6-9.8-25.4-24.2-25.4c-14.3,0-23.8,11.6-23.8,25.4
			c0,13.6,9.8,25.4,24.1,25.4C506.1,203.8,515.7,192.2,515.7,178.3z"/>
		<path class="st1" d="M556,131.2h40.4c23.8,0,39.2,12.3,39.2,33.4c0,22.2-17.1,33.9-40.5,33.9h-12.9v26.9H556V131.2z M594.5,178
			c9.3,0,14.9-4.8,14.9-12.5c0-8.1-5.7-12.4-15.1-12.4h-12.3V178H594.5z"/>
		<path class="st1" d="M669.7,130.5h25.2l40.1,94.9h-28l-6.9-16.8h-36.4l-6.7,16.8h-27.5L669.7,130.5z M692.6,188.3l-10.5-26.8
			l-10.6,26.8H692.6z"/>
		<g>
			<path d="M279.9,277.7c0-0.6,0-1.3,0.1-2.1c0.1-0.8,0.2-1.4,0.3-1.9l0.1-0.7l3.6-21.5c0.3-1.9,1.1-3.4,2.4-4.5
				c1.3-1.1,2.9-1.7,5-1.7c1.8,0,3.4,0.5,4.6,1.6c1.2,1,2.2,2.6,3,4.6l4.6,12h0.5l4.6-12c1.6-4.1,4.1-6.1,7.7-6.1
				c2.1,0,3.8,0.6,5.1,1.7c1.3,1.1,2.1,2.6,2.4,4.5l3.6,21.5c0.3,1.7,0.5,3.3,0.5,4.6c0,1.5-0.5,2.8-1.4,3.7c-1,0.9-2.3,1.4-3.9,1.4
				c-1.6,0-3-0.5-4-1.4c-1-0.9-1.6-2.2-1.9-3.7l-2.3-13.3h-0.5l-3.8,9.7c-0.7,1.7-1.5,3-2.4,3.8c-1,0.8-2.2,1.3-3.7,1.3
				c-1.5,0-2.7-0.4-3.7-1.3c-1-0.8-1.8-2.1-2.4-3.8l-3.8-9.7l-0.5,0l-2.3,13.3c-0.2,1.6-0.9,2.8-1.9,3.7c-1,0.9-2.4,1.4-4,1.4
				c-1.6,0-3-0.5-3.9-1.4C280.4,280.5,279.9,279.3,279.9,277.7z"/>
			<path d="M329,251.1c0-1.4,0.5-2.6,1.6-3.6c1.1-1,2.4-1.5,4-1.5c1.3,0,2.5,0.4,3.4,1.3c1,0.9,1.9,2.1,2.7,3.8l5.6,10.7h0.5
				l4.3-10.7c1.5-3.4,3.6-5.1,6.1-5.1c1.6,0,3,0.5,4,1.5c1.1,1,1.6,2.2,1.6,3.6c0,0.7-0.1,1.5-0.3,2.3c-0.2,0.8-0.4,1.3-0.6,1.7
				l-0.3,0.6l-8.2,16.9c-0.7,1.5-1.5,2.8-2.4,4.1c-0.9,1.2-2,2.4-3.3,3.4c-1.2,1-2.6,1.8-4.2,2.4c-1.6,0.6-3.2,0.9-4.9,0.9
				c-2.6,0-4.6-0.6-6-1.8c-1.4-1.2-2.2-2.6-2.2-4.4c0-1.3,0.4-2.3,1.3-3.2c0.9-0.9,2-1.3,3.3-1.3c0.8,0,1.5,0.2,2.2,0.5
				c0.7,0.3,1.1,0.5,1.4,0.5c0.3,0,0.6-0.1,0.8-0.3c0.3-0.2,0.4-0.3,0.5-0.5l0.2-0.3l-10-16.9c-0.1-0.2-0.2-0.4-0.4-0.6
				c-0.1-0.3-0.3-0.8-0.6-1.6C329.1,252.6,329,251.9,329,251.1z"/>
			<path d="M360.4,278.2c0-0.7,0.1-1.3,0.4-1.8c0.3-0.5,0.6-0.9,1-1.3s0.9-0.7,1.4-1c0.5-0.3,1-0.8,1.5-1.3c0.5-0.5,1-1.1,1.4-1.8
				c0.4-0.7,0.8-1.7,1-2.9c0.3-1.2,0.4-2.6,0.4-4.2v-12.3c0-1.5,0.5-2.8,1.5-3.7c1-0.9,2.4-1.4,4.1-1.4h18.2c1.8,0,3.1,0.5,4.1,1.4
				c1,0.9,1.5,2.2,1.5,3.7v26.1c0,1.5-0.5,2.8-1.5,3.7c-1,0.9-2.4,1.4-4.1,1.4s-3.1-0.5-4.1-1.4c-1-0.9-1.5-2.2-1.5-3.7v-21h-6.9
				v7.2c0,2.5-0.2,4.8-0.7,6.9c-0.5,2.1-1.2,3.9-2,5.5c-0.8,1.5-1.8,2.8-3,3.9c-1.1,1.1-2.3,1.9-3.6,2.4c-1.3,0.5-2.6,0.8-3.9,0.8
				c-1.5,0-2.8-0.5-3.7-1.4S360.4,279.7,360.4,278.2z"/>
			<path d="M403.6,277.2v-26.1c0-1.6,0.5-2.8,1.5-3.7c1-0.9,2.4-1.4,4.1-1.4c1.8,0,3.1,0.5,4.1,1.4c1,0.9,1.5,2.2,1.5,3.7v6.1h4.6
				c2.5,0,4.8,0.3,6.8,1c2,0.7,3.7,1.6,5,2.7c1.3,1.1,2.3,2.5,3,4c0.7,1.5,1,3.1,1,4.9c0,1.7-0.3,3.4-1,4.9c-0.7,1.5-1.7,2.8-3,4
				c-1.3,1.1-3,2-5,2.7c-2,0.7-4.3,1-6.8,1h-10.2c-1.8,0-3.1-0.5-4.1-1.4C404,280,403.6,278.7,403.6,277.2z M414.8,273.1h4.6
				c1.2,0,2.2-0.3,3-1c0.7-0.6,1.1-1.4,1.1-2.4c0-0.9-0.4-1.7-1.1-2.4c-0.7-0.6-1.7-1-3-1h-4.6V273.1z"/>
			<path d="M434.7,255.4c-1-0.9-1.5-2.2-1.5-3.7c0-1.6,0.5-2.8,1.5-3.7c1-0.9,2.4-1.4,4.1-1.4h22.5c1.8,0,3.1,0.5,4.1,1.4
				c1,0.9,1.5,2.2,1.5,3.7c0,1.5-0.5,2.8-1.5,3.7c-1,0.9-2.4,1.4-4.1,1.4h-5.6v21c0,1.5-0.5,2.8-1.5,3.7c-1,0.9-2.4,1.4-4.1,1.4
				s-3.1-0.5-4.1-1.4c-1-0.9-1.5-2.2-1.5-3.7v-21h-5.6C437,256.7,435.7,256.3,434.7,255.4z"/>
			<path d="M470.2,277.7v-26.6c0-1.6,0.5-2.8,1.5-3.7c1-0.9,2.4-1.4,4.1-1.4c1.8,0,3.1,0.5,4.1,1.4c1,0.9,1.5,2.2,1.5,3.7v11.8h0.5
				l8.7-11.8c1.2-1.8,2.4-3.1,3.4-3.9c1-0.8,2.3-1.2,3.7-1.2c1.7,0,3.1,0.5,4.1,1.4c1,0.9,1.5,2.2,1.5,3.7v26.6
				c0,1.5-0.5,2.8-1.5,3.7c-1,0.9-2.4,1.4-4.1,1.4s-3.1-0.5-4.1-1.4c-1-0.9-1.5-2.2-1.5-3.7v-11.8h-0.5l-8.7,11.8
				c-1.2,1.8-2.4,3.1-3.4,3.9c-1,0.8-2.3,1.2-3.7,1.2c-1.8,0-3.1-0.5-4.1-1.4C470.7,280.5,470.2,279.2,470.2,277.7z"/>
			<path d="M507.8,277.7c0-0.6,0-1.3,0.1-2.1c0.1-0.8,0.2-1.4,0.2-1.9l0.1-0.7l3.6-21.5c0.3-1.9,1.1-3.4,2.4-4.5s2.9-1.7,5-1.7
				c1.8,0,3.4,0.5,4.6,1.6c1.2,1,2.2,2.6,3,4.6l4.6,12h0.5l4.6-12c1.6-4.1,4.1-6.1,7.7-6.1c2.1,0,3.8,0.6,5.1,1.7
				c1.3,1.1,2.1,2.6,2.4,4.5l3.6,21.5c0.3,1.7,0.5,3.3,0.5,4.6c0,1.5-0.5,2.8-1.4,3.7c-1,0.9-2.3,1.4-3.9,1.4c-1.6,0-3-0.5-4-1.4
				c-1-0.9-1.6-2.2-1.9-3.7l-2.3-13.3h-0.5l-3.8,9.7c-0.7,1.7-1.5,3-2.4,3.8c-1,0.8-2.2,1.3-3.7,1.3c-1.5,0-2.7-0.4-3.7-1.3
				c-1-0.8-1.8-2.1-2.4-3.8l-3.8-9.7l-0.5,0l-2.3,13.3c-0.2,1.6-0.9,2.8-1.9,3.7c-1,0.9-2.4,1.4-4,1.4c-1.6,0-3-0.5-3.9-1.4
				C508.3,280.5,507.8,279.3,507.8,277.7z"/>
			<path d="M556.9,277.7c0-0.4,0.1-1.1,0.3-1.8c0.2-0.8,0.4-1.4,0.6-2l0.3-0.8l8.2-21.5c0.8-2.1,1.9-3.6,3.3-4.6
				c1.4-1,3.3-1.5,5.7-1.5c2.4,0,4.4,0.5,5.7,1.5c1.4,1,2.5,2.6,3.2,4.6l8.2,21.5c0.9,2.1,1.3,3.6,1.3,4.6c0,1.4-0.5,2.6-1.6,3.6
				c-1.1,1-2.4,1.5-4,1.5c-2.7,0-4.7-1.7-6.1-5.1l-1.3-3.1h-10.7l-1.3,3.1c-1.4,3.4-3.5,5.1-6.1,5.1c-1.6,0-3-0.5-4-1.5
				C557.4,280.3,556.9,279.1,556.9,277.7z M572.2,265.4h6.1l-2.8-7.7H575L572.2,265.4z"/>
			<path d="M597,277.7v-26.1c0-1.6,0.5-2.8,1.5-3.7c1-0.9,2.4-1.4,4.1-1.4h10.2c2.5,0,4.8,0.3,6.8,1c2,0.7,3.7,1.6,5,2.7
				c1.3,1.1,2.3,2.5,3,4c0.7,1.5,1,3.1,1,4.9c0,1.7-0.3,3.4-1,4.9c-0.7,1.5-1.7,2.8-3,4c-1.3,1.1-3,2-5,2.7s-4.3,1-6.8,1h-4.6v6.1
				c0,1.5-0.5,2.8-1.5,3.7c-1,0.9-2.4,1.4-4.1,1.4c-1.8,0-3.1-0.5-4.1-1.4C597.5,280.5,597,279.3,597,277.7z M608.3,262.4h4.6
				c1.2,0,2.2-0.3,3-1c0.7-0.6,1.1-1.4,1.1-2.4c0-0.9-0.4-1.7-1.1-2.4c-0.7-0.6-1.7-1-3-1h-4.6V262.4z"/>
			<path d="M633,277.7v-26.6c0-1.6,0.5-2.8,1.5-3.7c1-0.9,2.4-1.4,4.1-1.4c1.8,0,3.1,0.5,4.1,1.4c1,0.9,1.5,2.2,1.5,3.7v7.1
				l11.2-10.7c0.1-0.1,0.3-0.3,0.5-0.4c0.2-0.2,0.7-0.4,1.4-0.7c0.7-0.3,1.4-0.4,2.2-0.4c1.5,0,2.8,0.5,3.7,1.4s1.4,2.2,1.4,3.7
				c0,0.7-0.2,1.5-0.5,2.1c-0.3,0.7-0.7,1.2-1,1.5l-0.5,0.5l-7.2,6.9l8.7,11c0.1,0.2,0.3,0.5,0.6,0.8c0.2,0.3,0.5,0.9,0.9,1.7
				c0.4,0.8,0.6,1.5,0.6,2.1c0,1.5-0.5,2.8-1.5,3.7c-1,0.9-2.4,1.4-4.1,1.4c-0.5,0-1.1-0.1-1.6-0.3c-0.5-0.2-1-0.4-1.3-0.6
				c-0.4-0.2-0.7-0.5-1-0.7c-0.3-0.2-0.5-0.5-0.7-0.6l-0.2-0.2l-8.7-11l-2.8,2.5v5.9c0,1.5-0.5,2.8-1.5,3.7c-1,0.9-2.4,1.4-4.1,1.4
				c-1.8,0-3.1-0.5-4.1-1.4C633.5,280.5,633,279.3,633,277.7z"/>
			<path d="M669.6,277.2v-25.6c0-1.6,0.5-2.8,1.5-3.7c1-0.9,2.4-1.4,4.1-1.4h19.4c1.8,0,3.1,0.5,4.1,1.4c1,0.9,1.5,2.2,1.5,3.7
				c0,1.6-0.5,2.8-1.5,3.7c-1,0.9-2.4,1.4-4.1,1.4h-13.8v3.1h9.7c1.5,0,2.7,0.4,3.7,1.3c0.9,0.9,1.4,2,1.4,3.3
				c0,1.3-0.5,2.4-1.4,3.3c-0.9,0.9-2.2,1.3-3.7,1.3h-9.7v3h14.3c1.8,0,3.1,0.5,4.1,1.4c1,0.9,1.5,2.2,1.5,3.7s-0.5,2.8-1.5,3.7
				c-1,0.9-2.4,1.4-4.1,1.4h-19.9c-1.8,0-3.1-0.5-4.1-1.4C670.1,280,669.6,278.7,669.6,277.2z"/>
			<path d="M702.8,255.4c-1-0.9-1.5-2.2-1.5-3.7c0-1.6,0.5-2.8,1.5-3.7c1-0.9,2.4-1.4,4.1-1.4h22.5c1.8,0,3.1,0.5,4.1,1.4
				c1,0.9,1.5,2.2,1.5,3.7c0,1.5-0.5,2.8-1.5,3.7c-1,0.9-2.4,1.4-4.1,1.4h-5.6v21c0,1.5-0.5,2.8-1.5,3.7c-1,0.9-2.4,1.4-4.1,1.4
				c-1.8,0-3.1-0.5-4.1-1.4c-1-0.9-1.5-2.2-1.5-3.7v-21h-5.6C705.1,256.7,703.7,256.3,702.8,255.4z"/>
		</g>
		<path class="st1" d="M152,91.2h35.6l56.8,134.3h-39.6l-9.7-23.8h-51.4l-9.5,23.8H95.2L152,91.2z M184.4,172.9L169.5,135l-15,37.9
			H184.4z"/>
	</g>
</g>
</svg>
